<svg width="25" height="24" viewBox="0 0 25 24" fill="none" xmlns="http://www.w3.org/2000/svg">
<path fill-rule="evenodd" clip-rule="evenodd" d="M9.89301 2.283C7.87471 2.283 5.93908 3.08477 4.51192 4.51192C3.08477 5.93908 2.283 7.87471 2.283 9.89301C2.283 11.9113 3.08477 13.8469 4.51192 15.2741C5.93908 16.7013 7.87471 17.503 9.89301 17.503C11.9113 17.503 13.8469 16.7013 15.2741 15.2741C16.7013 13.8469 17.503 11.9113 17.503 9.89301C17.503 7.87471 16.7013 5.93908 15.2741 4.51192C13.8469 3.08477 11.9113 2.283 9.89301 2.283ZM0 9.89301C0 7.26922 1.0423 4.7529 2.8976 2.8976C4.7529 1.0423 7.26922 0 9.89301 0C12.5168 0 15.0331 1.0423 16.8884 2.8976C18.7437 4.7529 19.786 7.26922 19.786 9.89301C19.786 12.5168 18.7437 15.0331 16.8884 16.8884C15.0331 18.7437 12.5168 19.786 9.89301 19.786C7.26922 19.786 4.7529 18.7437 2.8976 16.8884C1.0423 15.0331 0 12.5168 0 9.89301Z" fill="#FFA500"/>
<path fill-rule="evenodd" clip-rule="evenodd" d="M16.9354 15.9354C17.1494 15.7216 17.4396 15.6016 17.7421 15.6016C18.0446 15.6016 18.3347 15.7216 18.5487 15.9354L24.6367 22.0234C24.7489 22.1279 24.8388 22.2539 24.9012 22.394C24.9636 22.534 24.9972 22.6851 24.9999 22.8384C25.0026 22.9917 24.9744 23.1439 24.917 23.2861C24.8596 23.4282 24.7741 23.5573 24.6657 23.6657C24.5573 23.7741 24.4282 23.8596 24.2861 23.917C24.1439 23.9744 23.9917 24.0026 23.8384 23.9999C23.6851 23.9972 23.534 23.9636 23.394 23.9012C23.2539 23.8388 23.1279 23.7489 23.0234 23.6367L16.9354 17.5487C16.7216 17.3347 16.6016 17.0446 16.6016 16.7421C16.6016 16.4396 16.7216 16.1494 16.9354 15.9354Z" fill="#FFA500"/>
</svg>
